<svg id="Side1" xmlns="http://www.w3.org/2000/svg" xmlns:xlink="http://www.w3.org/1999/xlink" viewBox="0 0 220 64"><defs><style>.cls-1{fill:none;}.cls-2{font-size:30.06px;font-family:PTSans-Caption, PT Sans Caption;}.cls-2,.cls-6{fill:#8ed5fa;}.cls-3{fill:#fff;}.cls-4{clip-path:url(#clip-path);}.cls-5{fill:#1c78c0;}.cls-7{clip-path:url(#clip-path-2);}.cls-8{clip-path:url(#clip-path-3);}</style><clipPath id="clip-path"><polygon class="cls-1" points="22.79 44.22 22.86 20.78 43.26 32.55 43.2 56 22.79 44.22"/></clipPath><clipPath id="clip-path-2"><polygon class="cls-1" points="23.27 19.78 43.53 8 63.94 19.78 43.67 31.56 23.27 19.78"/></clipPath><clipPath id="clip-path-3"><polygon class="cls-1" points="44.37 55.91 44.3 32.47 64.41 20.86 64.47 44.31 44.37 55.91"/></clipPath></defs><title>appshell-logo-white</title><text class="cls-2" transform="translate(69.38 41)">app<tspan class="cls-3" x="55.38" y="0">shell</tspan></text><g id="iso-left"><g class="cls-4"><polyline class="cls-5" points="32.42 38.73 22.83 33.19 22.79 44.22 32.39 49.76 32.42 38.73"/><polyline class="cls-5" points="43.23 44.97 33.62 39.42 33.59 50.45 43.2 56 43.23 44.97"/><polyline class="cls-5" points="32.46 26.32 22.86 20.78 22.83 31.81 32.43 37.35 32.46 26.32"/><polyline class="cls-6" points="43.26 32.55 33.66 27.01 33.63 38.05 43.23 43.59 43.26 32.55"/></g></g><g id="iso-top"><g class="cls-7"><polyline class="cls-5" points="42.4 19.78 32.8 14.24 23.27 19.78 32.87 25.32 42.4 19.78"/><polyline class="cls-6" points="53.21 26.02 43.6 20.47 34.07 26.02 43.67 31.56 53.21 26.02"/><polyline class="cls-5" points="53.13 13.54 43.53 8 34 13.54 43.6 19.09 53.13 13.54"/><polyline class="cls-5" points="63.94 19.78 54.34 14.24 44.8 19.78 54.4 25.32 63.94 19.78"/></g></g><g id="iso-right"><g class="cls-8"><polyline class="cls-5" points="53.94 39.34 44.34 44.88 44.37 55.91 53.97 50.37 53.94 39.34"/><polyline class="cls-5" points="64.44 33.27 54.84 38.82 54.87 49.85 64.47 44.31 64.44 33.27"/><polyline class="cls-6" points="53.9 26.93 44.3 32.47 44.33 43.5 53.93 37.96 53.9 26.93"/><polyline class="cls-5" points="64.41 20.86 54.8 26.41 54.84 37.44 64.44 31.9 64.41 20.86"/></g></g></svg>